<?xml version="1.0" encoding="utf-8"?>
<!-- Generator: Adobe Illustrator 19.0.0, SVG Export Plug-In . SVG Version: 6.00 Build 0)  -->
<svg version="1.1" id="レイヤー_1" xmlns="http://www.w3.org/2000/svg" xmlns:xlink="http://www.w3.org/1999/xlink" x="0px"
	 y="0px" width="275.496px" height="289.299px" viewBox="0 0 275.496 289.299" enable-background="new 0 0 275.496 289.299"
	 xml:space="preserve">
<g id="XMLID_2_">
	<g id="XMLID_282_">
		<path id="XMLID_53_" fill="#231815" d="M90.674,57.021c-1.166-0.026-2.202-0.749-2.628-1.835
			c-0.218-0.556-5.261-13.773,2.166-26.663c6.352-11.023,19.636-18.147,39.485-21.175c3.741-0.57,7.507-0.86,11.193-0.86
			c47.838,0,74.009,46.974,75.099,48.974c0.494,0.906,0.468,2.007-0.068,2.888c-0.525,0.863-1.462,1.388-2.47,1.388
			C213.429,59.738,90.674,57.021,90.674,57.021z"/>
		<path id="XMLID_52_" fill="#FFFFFF" d="M90.738,54.129c0,0-14.037-35.772,39.395-43.923s83.317,46.64,83.317,46.64L90.738,54.129z
			"/>
	</g>
	<path id="XMLID_281_" fill="#E1E2EF" d="M130.132,10.207c-7.427,1.133-13.547,2.801-18.585,4.831
		c18.908,9.647,35.421,23.53,47.985,40.615l53.917,1.194C213.45,56.846,183.564,2.056,130.132,10.207z"/>
	<path id="XMLID_280_" fill="#69FFFF" d="M92.825,55.904c0,0-0.453-17.66,28.527-22.188s57.96,18.565,57.96,18.565L92.825,55.904z"
		/>
	<g id="XMLID_264_">
		<g id="XMLID_291_">
			<path id="XMLID_295_" fill="none" stroke="#231815" stroke-width="4.3378" stroke-linecap="round" stroke-linejoin="round" d="
				M245.851,71.031c0,0-24.708-1.31-29.797-8.681l5.229-1.638L245.851,71.031z"/>
			<path id="XMLID_294_" fill="none" stroke="#231815" stroke-width="4.3378" stroke-linecap="round" stroke-linejoin="round" d="
				M218.499,61.368c0,0,14.741,3.931,32.757,16.051s16.87,12.12,16.87,12.12l7.37-4.258c0,0-38.981-24.24-54.213-24.568
				L218.499,61.368z"/>
			<path id="XMLID_293_" fill="none" stroke="#231815" stroke-width="4.3378" stroke-linecap="round" stroke-linejoin="round" d="
				M217.824,71.687c0,0,14.433,9.172,21.639,16.215s14.085,17.852,14.085,17.852s3.931-4.258,2.948-8.844
				c-0.983-4.586-13.582-17.689-25.544-23.749s-11.962-6.06-11.962-6.06L217.824,71.687z"/>
			<path id="XMLID_292_" fill="none" stroke="#231815" stroke-width="4.3378" stroke-linecap="round" stroke-linejoin="round" d="
				M256.497,96.909c-0.668-3.118-6.708-10.171-14.264-16.273c3.025,5.03,4.634,11.048,5.686,17.099
				c3.33,4.407,5.63,8.019,5.63,8.019S257.48,101.495,256.497,96.909z"/>
		</g>
		<g id="XMLID_286_">
			<path id="XMLID_290_" fill="#AF0E29" d="M245.851,71.031c0,0-24.708-1.31-29.797-8.681l5.229-1.638L245.851,71.031z"/>
			<path id="XMLID_289_" fill="#E60012" d="M218.499,61.368c0,0,14.741,3.931,32.757,16.051s16.87,12.12,16.87,12.12l7.37-4.258
				c0,0-38.981-24.24-54.213-24.568L218.499,61.368z"/>
			<path id="XMLID_288_" fill="#AF0E29" d="M217.824,71.687c0,0,14.433,9.172,21.639,16.215s14.085,17.852,14.085,17.852
				s3.931-4.258,2.948-8.844c-0.983-4.586-13.582-17.689-25.544-23.749s-11.962-6.06-11.962-6.06L217.824,71.687z"/>
			<path id="XMLID_287_" fill="#E60012" d="M256.497,96.909c-0.668-3.118-6.708-10.171-14.264-16.273
				c3.025,5.03,4.634,11.048,5.686,17.099c3.33,4.407,5.63,8.019,5.63,8.019S257.48,101.495,256.497,96.909z"/>
		</g>
	</g>
	<g id="XMLID_175_">
		<g id="XMLID_247_">
			<path id="XMLID_261_" fill="#231815" stroke="#231815" stroke-width="3.6148" stroke-miterlimit="10" d="M53.193,43.876
				c-28.591,0-51.769,25.575-51.769,57.123s23.178,57.123,51.769,57.123s51.769-25.575,51.769-57.123S81.784,43.876,53.193,43.876z
				 M53.193,131.258c-15.31,0-27.721-13.695-27.721-30.588s12.411-30.588,27.721-30.588c15.31,0,27.721,13.695,27.721,30.588
				S68.503,131.258,53.193,131.258z"/>
			<path id="XMLID_260_" fill="#FFFFFF" d="M2.148,100.634C2.216,88.53,5.694,77.046,12.222,67.363
				C19.923,69.28,28.25,72.19,32.74,78.926c-4.626,5.266-7.414,12.1-7.909,19.378c-3.078-0.387-6.332-0.722-9.521-0.722
				C9.935,97.581,5.613,98.582,2.148,100.634z"/>
			<path id="XMLID_259_" fill="#FF7396" d="M7.82,126.813c-3.519-7.548-5.465-15.979-5.645-24.49
				c3.381-2.247,7.568-3.296,13.133-3.296c3.151,0,6.389,0.339,9.453,0.725c-0.008,0.305-0.013,0.611-0.013,0.918
				c0,4.382,0.804,8.609,2.392,12.581C19.875,114.715,12.633,119.803,7.82,126.813z"/>
			<path id="XMLID_258_" fill="#FFFFFF" d="M21.316,145.026c-5.234-4.634-9.524-10.247-12.765-16.704
				c4.659-7.162,11.93-12.357,19.17-13.71c2.104,4.651,5.228,8.654,9.093,11.656C31.028,130.541,26.071,136.543,21.316,145.026z"/>
			<path id="XMLID_257_" fill="#FF7396" d="M53.193,157.399c-11.22,0-21.843-3.943-30.759-11.41
				c4.795-8.612,9.772-14.618,15.602-18.823c4.536,3.152,9.766,4.815,15.157,4.815c2.534,0,5.043-0.369,7.475-1.097
				c-1.665,8.98,1.004,17.629,7.426,24.057C63.259,156.573,58.252,157.399,53.193,157.399z"/>
			<path id="XMLID_256_" fill="#FFFFFF" d="M69.61,154.402c-6.626-6.316-9.296-15.036-7.362-24.045
				c6.16-2.276,11.44-6.829,14.946-12.887c7.159,1.347,13.403,5.872,19.061,13.811C90.004,142.102,80.569,150.289,69.61,154.402z"/>
			<path id="XMLID_255_" fill="#FF7396" d="M71.265,76.502c-2.41-2.187-5.106-3.907-8.028-5.122
				c2.371-8.672,7.123-15.9,13.447-20.452c7.496,4.309,13.93,10.628,18.693,18.348c-0.202-0.002-0.404-0.003-0.605-0.003
				C85.361,69.272,77.457,71.704,71.265,76.502z"/>
			<path id="XMLID_254_" fill="#FFFFFF" d="M61.881,70.858c-2.809-0.995-5.728-1.499-8.688-1.499c-2.045,0-4.103,0.248-6.125,0.737
				c-2.253-2.164-3.475-4.201-3.948-6.567c-1.533-5.374-1.542-11.189-0.039-17.817c3.326-0.739,6.726-1.114,10.112-1.114
				c7.752,0,15.181,1.869,22.1,5.558C69.007,54.893,64.283,62.179,61.881,70.858z"/>
			<path id="XMLID_253_" fill="#FFFFFF" d="M81.611,99.391c-0.31-8.358-3.649-16.233-9.287-21.88
				c5.907-4.508,13.455-6.793,22.448-6.793c0.491,0,0.984,0.007,1.478,0.02c4.947,8.578,7.687,18.436,7.955,28.599
				c-3.846-1.409-8.058-2.179-11.978-2.179C88.243,97.159,84.677,97.91,81.611,99.391z"/>
			<path id="XMLID_252_" fill="#FF7396" d="M97.034,129.889c-5.662-7.752-11.931-12.263-19.111-13.749
				c2.383-4.607,3.661-9.813,3.712-15.14c2.999-1.589,6.56-2.394,10.592-2.394c3.935,0,8.181,0.811,12.01,2.29
				c0.001,0.035,0.001,0.069,0.001,0.104C104.239,111.213,101.751,121.175,97.034,129.889z"/>
			<path id="XMLID_251_" fill="#FF7396" d="M33.746,77.835c-4.688-6.78-12.929-9.78-20.644-11.741
				c7.179-10.051,17.201-17.105,28.416-20.005c-1.402,6.584-1.336,12.412,0.198,17.782c0.584,2.932,2.249,5.126,3.745,6.669
				C41.095,71.895,37.081,74.394,33.746,77.835z"/>
			<path id="XMLID_248_" opacity="0.45" fill="#C9CACA" d="M53.193,52.551c-23.762,0-43.093,21.733-43.093,48.447
				s19.332,48.448,43.093,48.448s43.093-21.734,43.093-48.448S76.955,52.551,53.193,52.551z M53.795,130.902
				c-14.977,0-27.118-13.388-27.118-29.903s12.141-29.903,27.118-29.903s27.118,13.388,27.118,29.903S68.773,130.902,53.795,130.902
				z"/>
		</g>
		<g id="XMLID_234_">
			<g id="XMLID_168_">
				<path id="XMLID_272_" fill="none" stroke="#231815" stroke-width="8.6755" stroke-linecap="round" stroke-linejoin="round" d="
					M125.952,271.797c38.088-13.179,46.637-57.86,48.122-68.202c-1.18,1.162-2.365,2.256-3.546,3.283
					c-1.219,7.465-3.791,14.915-7.359,21.915c-3.77,10.023-11.159,22.099-25.495,31.665c-19.609,13.084-30.485,10.73-42.851,1.945
					c-8.643-6.14-16.088-6.03-19.791-5.408c-0.238,0.132-0.471,0.269-0.69,0.416c-0.168,0.112-0.326,0.231-0.481,0.352
					C75.514,265.359,88.518,284.75,125.952,271.797"/>
				<path id="XMLID_271_" fill="none" stroke="#231815" stroke-width="8.6755" stroke-linecap="round" stroke-linejoin="round" d="
					M179.524,197.671c-1.792,2.154-3.616,4.122-5.449,5.925c-1.486,10.342-10.035,55.023-48.122,68.202
					c-37.435,12.953-50.439-6.439-52.09-14.034c-2.815,2.182-3.633,5.679-2.291,9.923c0.466,1.473,1.496,2.954,3,4.373
					c2.507,2.365,6.332,4.558,11.056,6.266c0.849,0.307,1.726,0.597,2.627,0.869c2.703,0.815,5.623,1.464,8.681,1.906
					c0.509,0.074,1.023,0.142,1.54,0.204c11.887,1.43,25.591-0.263,36.568-7.315C161.437,257.036,179.47,225.681,179.524,197.671"/>
				<path id="XMLID_270_" fill="none" stroke="#231815" stroke-width="8.6755" stroke-linecap="round" stroke-linejoin="round" d="
					M94.824,262.403c12.366,8.785,23.242,11.14,42.851-1.945c14.336-9.566,21.725-21.642,25.495-31.665
					c-8.427,16.537-22.448,30.548-37.583,36.2c-11.137,4.128-21.303,2.959-28.809-3.31c-2.631-2.198-5.342-3.752-7.972-4.753
					c-0.526-0.2-1.048-0.378-1.567-0.534c-1.813-0.548-3.572-0.833-5.219-0.886c-0.941-0.031-1.846,0.014-2.705,0.13
					c-0.215,0.029-0.426,0.062-0.635,0.099c-0.835,0.149-1.621,0.368-2.347,0.648c-0.459,0.177-0.891,0.383-1.3,0.609
					C78.736,256.373,86.181,256.263,94.824,262.403"/>
			</g>
			<g id="XMLID_150_">
				<path id="XMLID_167_" fill="#F08900" d="M125.952,271.797c38.088-13.179,46.637-57.86,48.122-68.202
					c-1.18,1.162-2.365,2.256-3.546,3.283c-1.219,7.465-3.791,14.915-7.359,21.915c-3.77,10.023-11.159,22.099-25.495,31.665
					c-19.609,13.084-30.485,10.73-42.851,1.945c-8.643-6.14-16.088-6.03-19.791-5.408c-0.238,0.132-0.471,0.269-0.69,0.416
					c-0.168,0.112-0.326,0.231-0.481,0.352C75.514,265.359,88.518,284.75,125.952,271.797"/>
				<path id="XMLID_166_" fill="#E86E00" d="M179.524,197.671c-1.792,2.154-3.616,4.122-5.449,5.925
					c-1.486,10.342-10.035,55.023-48.122,68.202c-37.435,12.953-50.439-6.439-52.09-14.034c-2.815,2.182-3.633,5.679-2.291,9.923
					c0.466,1.473,1.496,2.954,3,4.373c2.507,2.365,6.332,4.558,11.056,6.266c0.849,0.307,1.726,0.597,2.627,0.869
					c2.703,0.815,5.623,1.464,8.681,1.906c0.509,0.074,1.023,0.142,1.54,0.204c11.887,1.43,25.591-0.263,36.568-7.315
					C161.437,257.036,179.47,225.681,179.524,197.671"/>
				<path id="XMLID_165_" fill="#FFFFFF" d="M94.824,262.403c12.366,8.785,23.242,11.14,42.851-1.945
					c14.336-9.566,21.725-21.642,25.495-31.665c-8.427,16.537-22.448,30.548-37.583,36.2c-11.137,4.128-21.303,2.959-28.809-3.31
					c-2.631-2.198-5.342-3.752-7.972-4.753c-0.526-0.2-1.048-0.378-1.567-0.534c-1.813-0.548-3.572-0.833-5.219-0.886
					c-0.941-0.031-1.846,0.014-2.705,0.13c-0.215,0.029-0.426,0.062-0.635,0.099c-0.835,0.149-1.621,0.368-2.347,0.648
					c-0.459,0.177-0.891,0.383-1.3,0.609C78.736,256.373,86.181,256.263,94.824,262.403"/>
			</g>
		</g>
		<path id="Fill-10_2_" fill="#FF8800" d="M183.542,207.198"/>
		<path id="Fill-13_11_" fill="#F6B700" d="M196.065,66.249c3.168,5.145,5.903,10.868,8.129,17.156
			c10.145,28.649,12.887,96.117-18.282,117.566c-16.462,11.328-31.932,13.253-40.696,13.227c-6.159-0.29-18.383-7.423-36.613-11.864
			s-39.812-2.026-39.812-2.026l-21.191-32.566c13.323-26.178,46.979-11.453,46.979-11.453s2.337-3.506-0.234-17.763
			c-13.79-9.115-33.189-32.722-33.189-32.722l14.491-13.79c0,0,3.038,3.272,11.453,9.115c-1.636-6.544-5.464-14.017-5.464-14.017
			c-1.482-0.658-3.529-2.468-4.421-5.403c-1.225-4.03-0.005-9.118,3.525-14.716c12.914-20.471,37.074-32.195,64.641-31.36
			c11.093,0.334,21.248,3.502,30.095,9.164C185.421,51.424,192.862,61.28,196.065,66.249z"/>
		<path id="Fill-13_6_" d="M142.63,35.591c0.914,0,1.828,0.014,2.75,0.042c11.093,0.334,21.248,3.502,30.095,9.164
			c9.946,6.627,17.386,16.482,20.59,21.452c3.168,5.145,5.903,10.868,8.129,17.156c10.145,28.649,12.887,96.117-18.282,117.566
			c-16.357,11.256-31.734,13.228-40.528,13.228c-0.057,0-0.113,0-0.169,0c-6.159-0.29-18.383-7.423-36.613-11.864
			c-8.732-2.127-18.234-2.681-25.763-2.681c-8.192,0-14.048,0.656-14.048,0.656l-21.191-32.566
			c6.269-12.319,17.042-15.58,26.691-15.58c10.855,0,20.288,4.127,20.288,4.127s2.337-3.506-0.234-17.763
			c-13.79-9.115-33.189-32.722-33.189-32.722l14.491-13.79c0,0,3.038,3.272,11.453,9.115c-1.636-6.544-5.464-14.017-5.464-14.017
			c-1.482-0.658-3.529-2.468-4.421-5.403c-1.225-4.03-0.005-9.118,3.525-14.716C93.222,47.207,116.214,35.593,142.63,35.591
			 M142.634,31.351L142.634,31.351c-27.817,0.001-52.296,12.48-65.481,33.38c-4.208,6.673-5.589,12.971-3.996,18.212
			c0.591,1.945,1.537,3.558,2.62,4.84c-0.004,0-0.008,0-0.013,0c-0.038-0.001-0.075-0.001-0.113-0.001
			c-1.087,0-2.139,0.411-2.928,1.161l-14.491,13.79c-1.61,1.532-1.764,4.047-0.353,5.764c0.78,0.949,18.619,22.573,32.588,32.51
			c0.716,4.435,0.878,7.533,0.831,9.617c-4.084-1.252-10.268-2.701-17.009-2.701c-13.975,0-24.511,6.189-30.47,17.897
			c-0.687,1.351-0.602,2.966,0.225,4.236l21.191,32.566c0.788,1.21,2.131,1.927,3.554,1.927c0.156,0,0.313-0.009,0.47-0.026
			c0.057-0.006,5.751-0.63,13.578-0.629c9.321,0,17.883,0.886,24.76,2.561c9.372,2.283,17.12,5.302,23.347,7.728
			c6.082,2.37,10.477,4.082,14.071,4.252c0.063,0.003,0.125,0.004,0.188,0.005c10.501,0,26.327-2.424,43.111-13.974
			c18.844-12.968,24.787-39.362,26.455-59.221c1.842-21.935-0.74-46.763-6.58-63.253c-2.285-6.455-5.151-12.499-8.516-17.964
			c-2.209-3.428-10.171-14.976-21.849-22.757c-9.703-6.211-20.555-9.519-32.318-9.874C144.545,31.366,143.589,31.351,142.634,31.351
			L142.634,31.351z"/>
		<ellipse id="circle_2_" cx="118.594" cy="144.292" rx="73.492" ry="73.802"/>
		<ellipse id="circle" fill="#005683" cx="118.594" cy="144.292" rx="69.281" ry="69.573"/>
		<path id="circle_1_" fill="#00709C" d="M95.942,84.458c-5.838,0-11.453,0.935-16.727,2.627
			c-18.055,12.558-29.902,33.483-29.902,57.208c0,12.198,3.146,23.649,8.637,33.617c9.829,9.51,23.213,15.388,37.992,15.388
			c30.148,0,54.589-24.365,54.589-54.42C150.531,108.822,126.09,84.458,95.942,84.458z"/>
		<path id="Fill-5_1_" fill="#FFFFFF" d="M91.409,180.674c-3.015,0.195-5.469,0.021-8.465-0.6
			c-0.904-9.006-1.487-20.256,3.052-39.866c8.246,21.346,17.329,36.999,17.394,37.085C101.846,178.03,97.148,180.27,91.409,180.674
			 M77.579,178.4c-23.594-10.717-27.925-36.12-20.008-55.676C57.872,142.076,63.295,157.166,77.579,178.4 M109.516,173.623
			c3.743-16.121,9.964-31.533,13.625-47.678c0.706-3.121,1.318-7.978,0.218-13.393C134.262,129.576,133.01,156.02,109.516,173.623
			 M60.889,116.236c10.651-16.384,31.019-29.71,53.374-13.345c-0.15-0.007-14.331,0.644-4.024,15.883
			c5.571,8.235,5.925,14.842,1.519,28.278c-1.591,6.624-2.071,8.624-3.492,15.445c-6.802-16.247-12.353-30.08-16.737-47.768
			c3.854-0.565,8.221-1.206,5.977-3.685c-0.283-0.312-20.586,1.701-20.78,1.734c-1.559,0.265-1.832,2.099-1.835,2.117
			c-0.162,1.448,0.101,1.433,4.5,1.168c1.159,6.245,1.687,9.096,4.555,18.211c-2.07,8.603-4.213,17.499-4.506,31.274
			c-9.251-18.404-12.954-31.187-13.661-47.166c1.313-0.798,3.067-0.484,4.227-1.672c0.791-0.811,1.176-2.639,0.19-2.852
			C66.699,113.103,64.029,115.581,60.889,116.236 M93.035,92.02c-35.001,2.887-57.728,55.602-26.773,83.188
			c31.373,27.957,70.134-8.166,68.796-41.683C134.018,107.541,112.491,91.086,93.035,92.02"/>
		<g id="Fill-13_2_">
			<path id="XMLID_51_" fill="#FFD200" d="M196.113,190.868c-2.899,3.983-6.282,7.407-10.201,10.104
				c-16.462,11.328-31.932,13.253-40.696,13.227c-2.069-0.407-3.541-0.762-3.775-4.969c-0.215-3.879-0.234-18.465,4.626-28.61
				c6.508-12.923,17.993-15.941,24.295-16.579c8.655-0.872,17.417,1.721,20.857,6.17
				C195.433,174.638,199.757,184.221,196.113,190.868z"/>
		</g>
		<path id="Fill-14_4_" d="M185.697,161.935c-4.589-1.699-10.156-2.422-15.734-1.855c-11.017,1.116-20.282,6.899-25.919,16.019
			c0,0-1.2,1.695-1.901,2.98s2.356,3.783,3.924,1.541c6.508-12.923,17.993-15.941,24.295-16.579
			c8.655-0.872,17.417,1.721,20.857,6.17c0.67,0.87,1.925,1.03,2.793,0.357c0.87-0.67,1.03-1.921,0.357-2.791
			c-1.235-1.598-2.958-2.991-5.009-4.151C189.36,163.627,186.362,162.086,185.697,161.935z"/>
		<path id="Fill-18_1_" d="M65.576,210.732L65.576,210.732c-1.022,0-2.152-0.146-3.359-0.435
			c-13.469-3.233-31.904-23.446-34.236-34.707c-1.042-5.036-0.085-9.691,2.695-13.104c2.458-3.015,6.172-4.744,10.193-4.744
			c3.619,0,7.297,1.357,10.636,3.925c6.557,5.041,17.681,27.142,20.081,32.625c0.998,2.281,2.981,9.128,0.203,13.375
			C70.875,209.065,69.053,210.732,65.576,210.732L65.576,210.732z M40.869,161.722c-2.859,0-5.382,1.164-7.102,3.275
			c-2.011,2.469-2.681,5.944-1.885,9.785c2.029,9.801,19.459,28.81,31.264,31.642c0.901,0.216,1.719,0.326,2.43,0.326
			c1.84,0,2.525-0.721,2.881-1.263c1.439-2.201,0.623-6.989-0.519-9.598c-3.269-7.467-13.627-27.042-18.862-31.068
			C46.44,162.793,43.602,161.722,40.869,161.722L40.869,161.722z"/>
		<path id="Fill-14_2_" d="M83.301,75.07c2.629-5.2,2.746-8.181,2.922-11.044c0.175-2.863-1.87-3.564-3.097-2.746
			c-1.227,0.818-3.563,2.356-7.304,5.239c-3.74,2.883-13.711,9.098-17.114,9.855c-1.576,0.349-2.764,1.407-3.184,2.826
			c-0.422,1.437,0.032,3.01,1.212,4.205c1.082,1.091,3.334,2.455,7.839,2.455c2.423,0,5.509-0.403,9.404-1.446
			C77.338,83.241,80.672,80.27,83.301,75.07z M72.911,80.576L72.911,80.576c-8.909,2.379-12.199,0.847-13.006,0.301
			c-0.441-0.297-0.559-0.52-0.578-0.514c0.001,0,0.058-0.064,0.244-0.105c2.989-0.663,8.86-3.765,14.066-7.383"/>
		<path id="Fill-11_2_" fill="#FF8800" d="M59.572,80.259c-0.186,0.041-0.243,0.105-0.244,0.105
			c0.019-0.007,0.137,0.216,0.578,0.514c0.807,0.545,4.097,2.078,13.006-0.301c4.722-2.001,8.417-8.628,9.339-11.625
			c1.092-3.548-0.41-1.946-2.163-0.543c-1.753,1.402-6.45,4.468-6.45,4.468C68.432,76.495,62.561,79.596,59.572,80.259"/>
		<path id="XMLID_219_" fill="#074156" stroke="#231815" stroke-width="1.4459" d="M139.406,103.619l-4.523,0.843
			c0,0,1.826,1.934,2.774,2.531C137.657,106.993,139.586,108.466,139.406,103.619z"/>
		<path id="Fill-12_1_" d="M65.564,109.303L65.564,109.303c-4.339,0-7.551-2.749-8.382-7.176c-0.54-2.882,0.486-6.064,2.889-8.96
			c3.121-3.758,8.048-6.486,11.716-6.486c0.826,0,1.585,0.135,2.256,0.403c2.439,0.975,4.263,3.347,4.879,6.343
			c0.827,4.022-0.582,8.325-3.769,11.51C72.377,107.712,68.882,109.303,65.564,109.303L65.564,109.303z M71.787,90.662
			c-2.144,0-6.061,1.929-8.65,5.048c-0.945,1.14-2.47,3.393-2.038,5.685c0.609,3.246,2.764,3.928,4.465,3.928
			c2.236,0,4.768-1.196,6.773-3.201c2.237-2.236,3.241-5.186,2.685-7.894c-0.345-1.681-1.264-2.97-2.458-3.446
			C72.368,90.703,72.1,90.662,71.787,90.662L71.787,90.662z"/>
		<path id="Fill-13_7_" fill="#FFD200" d="M184.642,52.437c0,0-2.415-3.116-9.167-7.64c-8.846-5.662-19.002-8.83-30.095-9.164
			c-27.567-0.835-51.727,10.889-64.641,31.36c-3.53,5.599-4.75,10.686-3.525,14.716c0.892,2.935,4.664,6.725,6.145,7.384
			c2.509,1.117,16.864-4.542,21.503-12.972c0.264-0.476,0.71-0.827,1.237-0.965c0.53-0.138,1.089-0.056,1.552,0.23
			c10.892,6.699,22.103,5.41,34.023,2.722c11.92-2.688,22.555-3.74,33.189-11.57C185.499,58.709,184.676,52.472,184.642,52.437z"/>
		<path id="XMLID_216_" fill="#F6B700" d="M126.82,80.269c4.843-0.13,9.785-1.017,14.855-2.161
			c11.92-2.688,22.555-3.74,33.189-11.57c10.635-7.83,9.812-14.066,9.778-14.102c0,0-2.415-3.116-9.167-7.64
			c-7.479-4.787-15.897-7.783-25.023-8.799c5.592,5.063,17.029,17.574,8.199,28.766C152.116,73.048,137.822,77.758,126.82,80.269z"
			/>
		<path id="XMLID_215_" fill="#FFFFFF" d="M117.05,39.526c-15.31,4.959-28.091,14.438-36.311,27.468
			c-3.53,5.598-4.75,10.686-3.525,14.716c0.892,2.935,4.664,6.725,6.146,7.384c0.242,0.108,0.599,0.149,1.044,0.134
			c-0.327-0.231-0.621-0.506-0.864-0.854c-1.424-0.735-4.844-4.274-5.634-6.874c-1.162-3.821,0.029-8.703,3.445-14.12
			C89.386,54.642,101.983,44.802,117.05,39.526z"/>
		<path id="Fill-13_5_" d="M187.826,49.969c-0.288-0.372-3.02-3.769-10.109-8.519c-9.676-6.194-20.491-9.49-32.215-9.844
			c-0.961-0.029-1.919-0.044-2.872-0.044l0,0c-27.74,0-52.151,12.442-65.298,33.281c-4.174,6.62-5.547,12.857-3.972,18.037
			c1.286,4.231,4.273,6.862,6.64,7.913c0.739,0.329,1.58,0.49,2.566,0.49c4.979,0,18.645-4.994,24.606-13.33
			c4.535,2.404,9.487,3.576,15.074,3.576c7.024,0,18.728-3.423,20.598-4.124c1.87-0.701,1.199-4.54-1.636-3.623
			c-6.009,1.922-12.451,3.719-18.962,3.719c-4.995,0-9.979-1.068-14.707-3.977c-0.316-0.195-0.677-0.295-1.043-0.295
			c-0.17,0-0.341,0.022-0.509,0.065c-0.527,0.138-0.973,0.488-1.237,0.965c-4.24,7.705-17.942,12.995-22.183,12.995
			c-0.399,0-0.715-0.047-0.931-0.143c-1.482-0.658-3.529-2.468-4.421-5.403c-1.225-4.03-0.005-9.118,3.525-14.716
			c12.483-19.788,35.472-31.402,61.891-31.402c0.912,0,1.83,0.014,2.751,0.042c11.093,0.334,21.248,3.502,30.095,9.164
			c6.752,4.523,9.167,7.64,9.167,7.64C186.901,54.735,189.802,52.332,187.826,49.969z"/>
		<path id="Fill-17_1_" d="M139.687,54.432c0,2.199-1.783,3.981-3.983,3.981c-2.2,0-3.983-1.782-3.983-3.981
			c0-2.199,1.783-3.981,3.983-3.981C137.904,50.452,139.687,52.234,139.687,54.432"/>
		<path id="Fill-16_1_" d="M93.66,65.49c0,2.199-1.783,3.981-3.983,3.981c-2.199,0-3.983-1.782-3.983-3.981s1.784-3.981,3.983-3.981
			C91.877,61.509,93.66,63.291,93.66,65.49"/>
		<path id="Fill-15_1_" d="M102.954,63.72c-3.167,2.374-2.212,5.309,1.328,5.751c3.541,0.442,3.817,0.677,7.082-1.77
			c3.54-2.654,3.983-7.078,0-6.635S104.725,62.393,102.954,63.72"/>
		<path id="Fill-13_3_" fill="#FFD200" d="M80.739,66.994"/>
		<g id="XMLID_209_">
			<path id="XMLID_213_" fill="#FCD700" d="M65.037,102.229c2.464,2.347,6.331,0.411,9.125-1.733
				c0.229-0.363,0.432-0.734,0.61-1.112c0.129-2.918-0.193-6.482-2.087-7.548c-1.713-0.964-4.477-0.173-6.635,0.743
				c-1.029,0.723-2.03,1.591-2.912,2.583C62.611,96.712,62.236,99.56,65.037,102.229"/>
			<path id="XMLID_211_" fill="#F6B600" d="M65.39,105.829c2.39,0,5.094-1.279,7.237-3.421c0.595-0.596,1.109-1.238,1.534-1.912
				c-2.794,2.144-6.66,4.08-9.125,1.733c-2.801-2.668-2.426-5.517-1.9-7.066c-0.114,0.129-0.23,0.256-0.34,0.389
				c-0.253,0.305-0.543,0.684-0.831,1.119c-0.359,0.544-0.713,1.177-0.978,1.863c-0.372,0.96-0.57,2.024-0.369,3.096
				C61.27,105.1,63.573,105.829,65.39,105.829"/>
			<path id="XMLID_210_" fill="#FFFFFF" d="M72.685,91.836c1.894,1.065,2.215,4.629,2.087,7.548
				c0.738-1.567,1.031-3.249,0.816-4.871c-0.024-0.183-0.055-0.365-0.092-0.546c-0.369-1.797-1.351-3.175-2.625-3.685
				c-0.21-0.083-0.496-0.127-0.83-0.127c-0.43,0-0.926,0.073-1.467,0.213c-0.721,0.186-1.522,0.492-2.351,0.906
				c-0.715,0.357-1.45,0.797-2.173,1.306C68.208,91.663,70.972,90.872,72.685,91.836"/>
		</g>
		<g id="XMLID_196_">
			<g id="XMLID_127_">
				<path id="XMLID_148_" fill="none" stroke="#231815" stroke-width="5.0607" stroke-linecap="round" stroke-linejoin="round" d="
					M125.929,85.856c-10.143,5.835-12.659,11.316-13.154,14.518c0.28,0.487,0.644,0.949,1.076,1.383
					c3.043,0.169,8.882-0.45,19.481-4.361c13.633-5.031,18.916-10.302,20.724-12.661c-1.353-2.688-2.635-5.003-3.546-6.591
					C146.567,78.18,137.602,79.14,125.929,85.856"/>
				<path id="XMLID_147_" fill="none" stroke="#231815" stroke-width="5.0607" stroke-linecap="round" stroke-linejoin="round" d="
					M133.332,97.396c-10.598,3.911-16.438,4.531-19.481,4.361c1.76,1.769,4.687,3.047,8.094,3.406
					c3.618,0.375,9.123-0.843,14.955-2.138c7.356-1.632,15.512-3.427,23.203-3c-1.224-5.024-3.738-10.701-6.048-15.29
					C152.248,87.093,146.964,92.364,133.332,97.396"/>
				<path id="XMLID_146_" fill="none" stroke="#231815" stroke-width="5.0607" stroke-linecap="round" stroke-linejoin="round" d="
					M117.648,88.906c-4.361,3.838-6.256,7.545-5.333,10.439c0.112,0.353,0.269,0.696,0.46,1.029
					c0.494-3.203,3.011-8.683,13.154-14.518c11.673-6.716,20.638-7.676,24.58-7.713c-0.091-0.159-0.18-0.314-0.263-0.458
					C137.899,77.948,125.627,81.883,117.648,88.906"/>
			</g>
			<g id="XMLID_123_">
				<path id="XMLID_126_" fill="#FCD700" d="M125.929,85.856c-10.143,5.835-12.659,11.316-13.154,14.518
					c0.28,0.487,0.644,0.949,1.076,1.383c3.043,0.169,8.882-0.45,19.481-4.361c13.633-5.031,18.916-10.302,20.724-12.661
					c-1.353-2.688-2.635-5.003-3.546-6.591C146.567,78.18,137.602,79.14,125.929,85.856"/>
				<path id="XMLID_125_" fill="#F6B600" d="M133.332,97.396c-10.598,3.911-16.438,4.531-19.481,4.361
					c1.76,1.769,4.687,3.047,8.094,3.406c3.618,0.375,9.123-0.843,14.955-2.138c7.356-1.632,15.512-3.427,23.203-3
					c-1.224-5.024-3.738-10.701-6.048-15.29C152.248,87.093,146.964,92.364,133.332,97.396"/>
				<path id="XMLID_124_" fill="#FFFFFF" d="M117.648,88.906c-4.361,3.838-6.256,7.545-5.333,10.439
					c0.112,0.353,0.269,0.696,0.46,1.029c0.494-3.203,3.011-8.683,13.154-14.518c11.673-6.716,20.638-7.676,24.58-7.713
					c-0.091-0.159-0.18-0.314-0.263-0.458C137.899,77.948,125.627,81.883,117.648,88.906"/>
			</g>
		</g>
		<g id="XMLID_176_">
			<path id="XMLID_195_" fill="#FFFFFF" d="M119.631,193.441c0.922,6.686,1.153,10.605,8.76,8.991
				c7.959-1.688,5.51-21.572,4.013-30.4c-0.719-1.834-1.523-3.311-2.345-4.499c-1.899-1.726-4.567-3.152-8.123-2.909
				c-5.855,0.401-7.69,7.385-8.188,12.181c0.08,1.069,0.213,2.199,0.395,3.387C116.056,183.422,119.017,188.991,119.631,193.441"/>
			<path id="XMLID_194_" fill="#7C7F89" d="M120.564,195.487c0.922,6.686,1.153,10.605,8.76,8.991
				c7.959-1.688,5.51-21.572,4.013-30.4c-0.719-1.834-1.523-3.311-2.345-4.499c-1.899-1.726-4.567-3.152-8.123-2.909
				c-5.855,0.401-7.69,7.385-8.188,12.181c0.08,1.069,0.213,2.199,0.395,3.387C116.989,185.468,119.95,191.037,120.564,195.487"/>
			<path id="XMLID_190_" d="M146.727,189.45c-0.413-2.263-0.972-4.572-1.686-6.915c-0.256-0.839-0.525-1.65-0.803-2.441
				c-0.348-0.989-0.71-1.946-1.091-2.863c0.013-0.027,0.027-0.054,0.04-0.081c-0.623-1.185-1.25-2.488-1.63-3.807
				c-0.049,0.055-0.1,0.109-0.147,0.166c-0.241-0.456-0.487-0.897-0.738-1.329c-2.938-5.072-6.546-8.456-10.648-9.984
				c-1.4-0.521-2.858-0.826-4.367-0.907c-0.271-0.015-0.541-0.033-0.816-0.033c-1.62,0-3.302,0.256-5.001,0.763
				c-1.695,0.505-3.147,1.309-4.361,2.383c-0.971,0.859-1.795,1.887-2.446,3.099c-1.912,3.56-2.379,8.524-1.412,15.012
				c0.44,2.952,1.177,6.22,2.215,9.821c0.151,0.524,0.3,1.047,0.464,1.585c0.384,1.263,0.591,2.6,0.687,3.975
				c0.173,2.479-0.019,5.089-0.208,7.643c-0.164,2.209-0.333,4.508-0.232,6.742c-0.064-0.007-0.128-0.015-0.192-0.023
				c0.587,1.917,0.99,3.883,1.651,5.783c0.953,2.744,2.747,4.549,5.397,5.737c1.419,0.636,2.91,1.167,4.439,1.568
				c2.378-0.078,4.751-0.244,7.126-0.415c0.03-0.002,0.057-0.001,0.086-0.002c4.553-2.416,7.741-6.646,11.145-10.561
				c-0.037-0.014-0.073-0.026-0.11-0.04C147.553,207.649,148.465,198.973,146.727,189.45z M128.984,222.064
				c-0.048,0.005-0.092,0.019-0.139,0.028c-0.339,0.031-0.678,0.052-1.018,0.052h-0.002c-1.408,0-2.771-0.275-4.051-0.816
				c-6.18-2.615-6.134-7.608-5.546-15.539c0.317-4.288,0.646-8.722-0.62-12.88c-1.208-3.969-2.047-7.523-2.531-10.671
				c-0.183-1.188-0.316-2.318-0.395-3.387c-0.309-4.144,0.152-7.398,1.398-9.716c1.029-1.914,2.582-3.158,4.749-3.804
				c1.289-0.384,2.552-0.583,3.763-0.608c0.049,0.007,0.095,0.021,0.146,0.024c0.062,0.006,3.269,0.511,6.257,4.833
				c0.822,1.188,1.626,2.665,2.345,4.499c1.736,4.43,2.968,10.945,2.711,20.518c-0.101,3.776-0.939,10.758-2.344,16.797
				C131.302,221.722,129.007,222.062,128.984,222.064z M134.635,220.02c0.82-1.894,1.644-4.432,2.438-7.845
				c1.457-6.263,2.326-13.538,2.432-17.488c0.012-0.472,0.017-0.928,0.023-1.388c0.083-6.587-0.531-11.82-1.55-15.976
				c-0.587-2.391-1.304-4.435-2.102-6.167c2.88,3.886,4.754,8.765,5.857,12.385c0.111,0.363,0.216,0.726,0.32,1.088
				c0.372,1.305,0.694,2.597,0.966,3.873c2.331,10.927,1.004,20.643-3.829,27.166C137.852,217.474,136.303,218.942,134.635,220.02z"
				/>
			<path id="XMLID_180_" fill="#7C7F89" d="M139.528,193.3c0.881-0.525,2.362-1.806,3.49-4.797
				c-0.272-1.276-0.594-2.567-0.966-3.873c-1.218-2.317-2.88-5.239-4.074-7.305C138.997,181.48,139.611,186.713,139.528,193.3"/>
			<path id="XMLID_179_" fill="#515566" d="M127.824,222.144h0.002c0.34,0,0.679-0.021,1.018-0.052
				c0.047-0.008,0.091-0.023,0.139-0.028c0.023-0.002,2.319-0.342,4.722-10.672c1.405-6.039,2.242-13.021,2.343-16.797
				c0.257-9.573-0.975-16.087-2.711-20.517c1.497,8.828,3.946,28.712-4.013,30.4c-7.608,1.614-7.838-2.305-8.76-8.991
				c-0.614-4.45-3.575-10.019-5.488-13.249c0.484,3.148,1.323,6.702,2.531,10.671c1.265,4.158,0.937,8.592,0.619,12.88
				c-0.587,7.931-0.634,12.924,5.547,15.539C125.053,221.869,126.416,222.144,127.824,222.144"/>
			<path id="XMLID_178_" fill="#515566" d="M139.528,193.3c-0.006,0.459-0.01,0.915-0.023,1.388
				c-0.106,3.95-0.975,11.225-2.432,17.488c-0.794,3.413-1.618,5.951-2.438,7.845c1.668-1.079,3.217-2.546,4.554-4.351
				c4.833-6.524,6.16-16.239,3.829-27.166C141.89,191.494,140.409,192.776,139.528,193.3"/>
			<path id="XMLID_177_" fill="#FFFFFF" d="M142.052,184.63c-0.103-0.362-0.209-0.724-0.319-1.088
				c-1.103-3.62-2.977-8.499-5.857-12.385c0.798,1.732,1.516,3.775,2.102,6.167C139.172,179.392,140.834,182.313,142.052,184.63"/>
		</g>
	</g>
	<g id="XMLID_145_">
		<g id="XMLID_198_">
			<path id="XMLID_267_" fill="#231815" d="M213.433,69.331c-7.792,0-17.031-4.177-23.237-8.26
				c-3.523-2.318-9.556-6.867-10.379-11.291l0,0c-0.896-4.81,1.523-7.091,4.086-7.622c0.507-0.106,1.032-0.073,1.521,0.095
				c1.019,0.348,2.061,0.699,3.122,1.051c0.174,0.058,0.343,0.133,0.503,0.223c4.938,2.771,17.725,9.224,29.788,9.306
				c0.71,0.005,1.393,0.271,1.919,0.746c3.866,3.494,5.369,6.629,4.595,9.586c-1.099,4.199-6.243,5.365-7.933,5.748
				C216.153,69.199,214.815,69.331,213.433,69.331z M185.446,48.367c0.014,0.107,0.033,0.225,0.057,0.354l0,0
				c0.192,1.03,2.499,3.982,7.873,7.518c6.859,4.513,16.558,8.439,22.765,7.033c3.127-0.708,3.614-1.569,3.618-1.577
				c0-0.002,0.034-0.968-2.116-3.103c-12.842-0.456-25.844-6.915-31.18-9.885C186.121,48.593,185.782,48.48,185.446,48.367z"/>
			<path id="XMLID_200_" fill="#231815" d="M215.962,79.03c-0.043,0-0.086,0-0.129,0c-2.829-0.008-5.697-0.448-8.524-1.305
				c-7.641-2.317-19.298-9.055-31.458-28.002l-0.43-0.666c-1.656-2.518-2.877-4.985-3.334-6.748
				c-0.252-0.972,0.017-2.004,0.711-2.729c0.695-0.725,1.715-1.036,2.696-0.826c0.613,0.132,1.378,0.373,2.155,0.678
				c2.066,0.813,4.682,1.762,7.777,2.82c1.233,0.422,2.032,1.616,1.95,2.917c-0.074,1.186-0.864,2.193-1.97,2.562
				c-0.006,0.2,0.009,0.518,0.097,0.989c0.192,1.03,2.499,3.981,7.872,7.517c6.86,4.513,16.559,8.439,22.766,7.033l0,0
				c3.127-0.708,3.614-1.569,3.618-1.577c0-0.002,0.042-1.185-2.879-3.825c-0.891-0.805-1.191-2.076-0.756-3.195
				c0.433-1.111,1.503-1.842,2.695-1.842c0.026,0,0.143,0.002,0.171,0.003c0.251,0.007,0.603,0.049,0.844,0.121l1.697,0.505
				c4.037,1.202,7.829,2.33,11.159,3.339c6.421,1.946,10.306,3.21,11.875,3.865c1.371,0.572,2.085,2.088,1.654,3.509
				c-0.3,0.99-1.074,2.607-3.051,4.689C238.487,73.785,228.889,79.03,215.962,79.03z M195.089,63.948
				c5.423,4.782,10.208,7.124,13.894,8.241c2.292,0.695,4.602,1.05,6.866,1.058c11.121,0.014,19.26-4.302,23.125-8.368
				c0.014-0.015,0.028-0.03,0.042-0.044c-1.753-0.574-4.303-1.377-8.005-2.499c-1.732-0.525-3.589-1.082-5.542-1.666
				c0.135,0.848,0.095,1.678-0.119,2.495c-1.099,4.2-6.243,5.365-7.934,5.748C210.72,70.43,202.037,67.597,195.089,63.948z"/>
			<path id="XMLID_199_" fill="#231815" d="M219.008,58.62l-0.186-0.003c-13.433-0.092-27.274-7.056-32.603-10.046
				c-1.3-0.729-1.833-2.327-1.23-3.69c0.603-1.363,2.144-2.044,3.556-1.576c6.614,2.195,13.808,4.397,18.644,5.862l0,0
				c4.281,1.297,8.562,2.574,12.645,3.79c1.376,0.41,2.244,1.767,2.037,3.188C221.663,57.566,220.444,58.62,219.008,58.62z"/>
		</g>
		<g id="XMLID_169_">
			<path id="XMLID_197_" fill="#F08900" d="M182.66,49.251c1.154,6.201,22.253,19.529,34.119,16.841
				c9.696-2.197,5.158-7.548,2.038-10.368c-12.664-0.086-25.838-6.675-31.183-9.675c-1.069-0.355-2.118-0.708-3.145-1.059
				C183.2,45.257,182.107,46.285,182.66,49.251"/>
			<path id="XMLID_171_" fill="#E86E00" d="M216.779,66.092c-11.866,2.688-32.964-10.64-34.119-16.841
				c-0.552-2.966,0.54-3.994,1.83-4.261c-2.913-0.997-5.624-1.97-7.898-2.866c-0.681-0.267-1.298-0.454-1.707-0.542
				c0.298,1.145,1.235,3.276,2.966,5.908l0.433,0.671c11.684,18.207,22.687,24.621,29.86,26.796l0.003,0.001
				c2.561,0.776,5.149,1.173,7.694,1.181c12.073,0.033,20.95-4.765,25.23-9.267c1.598-1.683,2.195-2.924,2.381-3.537
				c-1.46-0.609-5.351-1.872-11.601-3.766c-3.326-1.008-7.114-2.136-11.143-3.334c-0.558-0.166-1.133-0.337-1.699-0.506
				c-0.064,0-0.128-0.003-0.191-0.004C221.937,58.544,226.475,63.896,216.779,66.092"/>
			<path id="XMLID_170_" fill="#FFFFFF" d="M206.349,51.934c-5.478-1.66-12.382-3.784-18.715-5.885
				c5.346,3,18.519,9.589,31.183,9.675c0.064,0.001,0.127,0.004,0.191,0.004C214.92,54.512,210.635,53.233,206.349,51.934"/>
		</g>
	</g>
	<g id="XMLID_120_">
		<g id="XMLID_63_">
			<path id="XMLID_80_" fill="none" stroke="#231815" stroke-width="2.1689" stroke-linecap="round" stroke-linejoin="round" d="
				M185.56,45.124l-0.188,1.142l-0.361,2.147l-0.477,2.856c0,0-37.377-12.529-58.133-10.223
				c-20.749,2.306-34.55,12.818-34.55,12.818l-0.036-0.253l-0.275-2.003l-0.159-1.135c0,0,3.224-15.37,26.634-20.662
				C141.423,24.512,185.56,45.124,185.56,45.124z"/>
			<path id="XMLID_79_" fill="none" stroke="#231815" stroke-width="2.1689" stroke-linecap="round" stroke-linejoin="round" d="
				M184.671,46.034l-0.333,2.176c-7.338-2.212-19.787-5.943-27.154-7.953c-10.946-2.986-25.23-5.633-38.801-3.297
				c-8.89,1.531-18.771,9.673-24.436,14.452l-1.504,1.128l-0.202-1.793c3.832-4.62,12.254-12.695,26.337-16.259
				C134.432,30.484,169.843,41.147,184.671,46.034z"/>
		</g>
		<g id="XMLID_60_">
			
				<path id="XMLID_62_" fill="#246591" stroke="#231815" stroke-width="1.4459" stroke-linecap="round" stroke-linejoin="round" stroke-miterlimit="10" d="
				M185.56,45.124l-0.188,1.142l-0.361,2.147l-0.477,2.856c0,0-37.377-12.529-58.133-10.223
				c-20.749,2.306-34.55,12.818-34.55,12.818l-0.036-0.253l-0.275-2.003l-0.159-1.135c0,0,3.224-15.37,26.634-20.662
				C141.423,24.512,185.56,45.124,185.56,45.124z"/>
			<path id="XMLID_61_" fill="#FFFFFF" d="M184.671,46.034l-0.333,2.176c-7.338-2.212-19.787-5.943-27.154-7.953
				c-10.946-2.986-25.23-5.633-38.801-3.297c-8.89,1.531-18.771,9.673-24.436,14.452l-1.504,1.128l-0.202-1.793
				c3.832-4.62,12.254-12.695,26.337-16.259C134.432,30.484,169.843,41.147,184.671,46.034z"/>
		</g>
	</g>
	<g id="XMLID_116_">
		<path id="XMLID_119_" fill="#E1E2EF" d="M208.565,66.725c-12.775,7.483-34.196-21.725-39.777-29.8l1.431,0.152l31.369,3.311
			l1.757,0.181C207.842,44.978,220.993,59.43,208.565,66.725z"/>
		<path id="XMLID_117_" fill="#231815" d="M205.066,40.749l-1.721-0.181l-1.757-0.181c1.974,1.829,11.791,11.343,11.061,18.956
			c-0.26,2.66-1.771,4.764-4.634,6.442c-1.207,0.708-2.566,1.07-4.034,1.07c-11.791,0-28.246-21.92-33.762-29.779l-1.431-0.152
			l-1.424-0.152c4.208,6.203,22.701,32.251,36.618,32.251c1.858,0,3.586-0.455,5.126-1.366c3.463-2.024,5.379-4.757,5.697-8.112
			C215.476,52.497,208.796,44.573,205.066,40.749z"/>
	</g>
	<path id="XMLID_115_" fill="#CED0E0" d="M139.311,21.728l10.421,8.539l19.055,5.886c0,0-9.23-7.648-14.374-9.422
		C149.269,24.956,139.311,21.728,139.311,21.728z"/>
	<g id="XMLID_112_">
		<path id="XMLID_41_" fill="#231815" d="M169.935,38.98c0,0-0.375-0.412-1.032-1.133c-0.168-0.172-0.339-0.399-0.551-0.578
			c-0.212-0.178-0.441-0.372-0.686-0.578c-0.485-0.414-1.017-0.888-1.709-1.342c-0.663-0.473-1.36-1.007-2.174-1.484
			c-0.793-0.501-1.63-1.027-2.542-1.507c-0.45-0.249-0.907-0.501-1.37-0.757c-0.475-0.237-0.955-0.477-1.44-0.719
			c-0.961-0.497-1.966-0.951-2.968-1.407c-2.003-0.919-4.059-1.729-5.972-2.519c-1.928-0.759-3.739-1.437-5.294-2.013
			c-1.56-0.56-2.86-1.027-3.77-1.354c-0.908-0.311-1.427-0.489-1.427-0.489l-0.031-0.011c-0.563-0.193-0.862-0.805-0.67-1.368
			c0.188-0.548,0.777-0.847,1.327-0.683c0,0,0.542,0.162,1.49,0.446c0.943,0.284,2.279,0.712,3.864,1.279
			c1.592,0.548,3.423,1.263,5.375,2.052c0.97,0.413,1.979,0.819,2.984,1.286c1.002,0.473,2.033,0.919,3.037,1.434
			c1.01,0.499,2.02,0.995,2.992,1.537c0.489,0.264,0.973,0.526,1.452,0.784c0.469,0.279,0.933,0.555,1.389,0.826
			c0.921,0.524,1.777,1.098,2.586,1.647c0.823,0.521,1.552,1.105,2.228,1.632c0.682,0.503,1.27,1.076,1.789,1.577
			c0.53,0.494,0.975,0.928,1.255,1.315c0.617,0.755,0.969,1.187,0.969,1.187c0.253,0.309,0.206,0.765-0.103,1.017
			c-0.299,0.244-0.733,0.209-0.99-0.072L169.935,38.98z"/>
	</g>
	<g id="XMLID_108_">
		<path id="XMLID_39_" fill="none" stroke="#231815" stroke-width="2.1689" d="M207.95,113.873c0,0,30.665-15.228,34.283-29.035
			l-37.867-2.106L207.95,113.873z"/>
		<path id="XMLID_38_" fill="#005683" d="M207.95,113.873c0,0,30.665-15.228,34.283-29.035l-37.867-2.106L207.95,113.873z"/>
	</g>
	<path id="XMLID_107_" fill="#DDD7D8" d="M207.406,178.333c0,0,13.778-9.198,13.709-11.092l-10.083-1.918L207.406,178.333z"/>
	
		<path id="XMLID_106_" fill="#FFFFFF" stroke="#231815" stroke-width="3.6148" stroke-linecap="round" stroke-linejoin="round" stroke-miterlimit="10" d="
		M150.08,168.834c0,0,27.367,13.95,18.129,49.437c0,0,42.827-10.521,43.382-55.738l-21.386-3.919l-1.963,5.759
		C188.242,164.373,169.913,155.014,150.08,168.834z"/>
	
		<path id="XMLID_105_" fill="#FFFFFF" stroke="#231815" stroke-width="2.8918" stroke-linecap="round" stroke-linejoin="round" stroke-miterlimit="10" d="
		M179.497,180.54c-2.877-7.481-10.794-13.128-19.373-16.944c-3.247,1.172-6.621,2.853-10.044,5.238c0,0,27.367,13.95,18.129,49.437
		c0,0,6.86-1.688,15.124-6.608C184.498,200.901,183.791,190.299,179.497,180.54z"/>
	<g id="XMLID_26_">
		<g id="XMLID_74_">
			<path id="XMLID_78_" fill="none" stroke="#231815" stroke-width="4.3378" stroke-linecap="round" stroke-linejoin="round" d="
				M189.731,161.271l31.383,5.97c0,0-0.829-26.072-3.64-48.041s-7.89-33.964-7.89-33.964s-38.936-12.894-63.795-3.601
				c0,0,37.007,25.795,43.107,48.255C192.825,144.352,189.731,161.271,189.731,161.271z"/>
			<g id="XMLID_75_">
				<path id="XMLID_77_" fill="none" stroke="#231815" stroke-width="4.3378" stroke-linecap="round" stroke-linejoin="round" d="
					M168.345,95.784c7.707,4.008,10.936-0.667,6.559-7.959c-3.606-2.52-6.798-4.09-8.955-4.993c-8.887-3.281-19-4.429-28.859-3.645
					c2.47,3.041,4.299,7.355,5.222,11.915C146.303,91.186,160.622,91.768,168.345,95.784"/>
				<path id="XMLID_76_" fill="none" stroke="#231815" stroke-width="4.3378" stroke-linecap="round" stroke-linejoin="round" d="
					M174.904,87.825c4.377,7.292,1.148,11.967-6.559,7.959c-7.724-4.016-22.042-4.598-26.033-4.682
					c0.914,4.515,0.94,9.272-0.187,13.274c-0.214,0.763-0.468,1.49-0.756,2.183c6.14-0.81,12.316-1.014,18.113,0.187
					c15.56,3.219,26.537,11.79,41.002,24.702C196.318,107.215,184.225,94.339,174.904,87.825"/>
			</g>
		</g>
		<g id="XMLID_64_">
			<path id="XMLID_73_" fill="#F2F2F2" d="M189.731,161.271l31.383,5.97c0,0-0.829-26.072-3.64-48.041s-7.89-33.964-7.89-33.964
				s-38.936-12.894-63.795-3.601c0,0,37.007,25.795,43.107,48.255C192.825,144.352,189.731,161.271,189.731,161.271z"/>
			<g id="XMLID_65_">
				<path id="XMLID_72_" fill="#FFFFFF" d="M168.345,95.784c7.707,4.008,10.936-0.667,6.559-7.959
					c-3.606-2.52-6.798-4.09-8.955-4.993c-8.887-3.281-19-4.429-28.859-3.645c2.47,3.041,4.299,7.355,5.222,11.915
					C146.303,91.186,160.622,91.768,168.345,95.784"/>
				<path id="XMLID_66_" fill="#F2F2F2" d="M174.904,87.825c4.377,7.292,1.148,11.967-6.559,7.959
					c-7.724-4.016-22.042-4.598-26.033-4.682c0.914,4.515,0.94,9.272-0.187,13.274c-0.214,0.763-0.468,1.49-0.756,2.183
					c6.14-0.81,12.316-1.014,18.113,0.187c15.56,3.219,26.537,11.79,41.002,24.702C196.318,107.215,184.225,94.339,174.904,87.825"
					/>
			</g>
		</g>
	</g>
	<g id="XMLID_13_">
		<path id="XMLID_31_" fill="none" stroke="#231815" stroke-width="2.8918" stroke-linecap="round" stroke-linejoin="round" d="
			M145.182,77.363c0,0,28.868-11.673,49.665-8.47c19.777,3.046,36.013,17.087,48.951,15.272c0.119-0.017,0.158,0.149,0.044,0.184
			c-7.182,2.196-32.166,9.676-37.101,9.009C200.962,92.577,179.212,73.463,145.182,77.363z"/>
		<path id="XMLID_30_" fill="#00709C" d="M145.182,77.363c0,0,28.868-11.673,49.665-8.47c19.777,3.046,36.013,17.087,48.951,15.272
			c0.119-0.017,0.158,0.149,0.044,0.184c-7.182,2.196-32.166,9.676-37.101,9.009C200.962,92.577,179.212,73.463,145.182,77.363z"/>
	</g>
	<g id="XMLID_10_">
		<path id="XMLID_28_" fill="#058499" d="M206.056,71.748c-3.602-1.238-7.336-2.259-11.208-2.855
			c-14.792-2.278-30.599,1.944-49.665,8.47C163.099,73.525,187.833,66.758,206.056,71.748z"/>
	</g>
	<path id="XMLID_9_" fill="#005683" stroke="#231815" stroke-width="2.1689" stroke-linecap="round" stroke-linejoin="round" d="
		M134.867,79.053c0,0,3.023,6.009,3.893,10.964s-1.581,18.784-1.581,18.784h8.681c0,0,3.207-13.726,1.527-19.477
		c-1.679-5.751-4.516-12.913-4.516-12.913L134.867,79.053z"/>
	<path id="XMLID_8_" fill="#7C7F89" d="M31.997,171.562c-0.114,4.324,1.543,9.267,3.5,13.547c2.966,4.185,6.851,8.543,11.014,12.3
		c4.04,1.924,10.503,3.494,12.734-0.845c4.485-8.72-7.074-29.861-14.957-35.14c-0.986-0.298-3.42-0.466-4.397-0.508
		C36.744,162.046,32.173,164.838,31.997,171.562"/>
	<path id="XMLID_6_" fill="#515566" d="M58.558,195.595c-2.231,4.338-8.007,3.739-12.048,1.815
		c5.336,4.816,12.565,8.639,17.428,9.806c0.935,0.224,1.782,0.339,2.516,0.339c1.907,0,2.615-0.747,2.983-1.309
		c1.491-2.281,0.646-7.242-0.537-9.946c-3.385-7.737-14.113-28.021-19.535-32.194c-1.64-1.262-3.357-2.159-5.079-2.68
		C52.171,166.705,63.043,186.875,58.558,195.595"/>
	<path id="XMLID_5_" fill="#FFFFFF" d="M33.072,164.312c-2.083,2.558-2.775,6.158-1.952,10.139c0.614,2.965,2.043,7.353,4.834,11.29
		c-1.957-4.281-3.065-9.833-2.951-14.157c0.177-6.724,4.747-9.516,7.894-10.644c-0.156-0.007-0.313-0.023-0.468-0.023
		C37.467,160.918,34.854,162.124,33.072,164.312"/>
</g>
</svg>
